<?xml version="1.0" encoding="UTF-8" standalone="no"?>
<!DOCTYPE svg PUBLIC "-//W3C//DTD SVG 1.1//EN"
 "http://www.w3.org/Graphics/SVG/1.1/DTD/svg11.dtd">
<!-- Generated by graphviz version 2.46.0 (0)
 -->
<!-- Title: dfa Pages: 1 -->
<svg width="153pt" height="218pt"
 viewBox="0.00 0.00 153.00 218.00" xmlns="http://www.w3.org/2000/svg" xmlns:xlink="http://www.w3.org/1999/xlink">
<g id="graph0" class="graph" transform="scale(1 1) rotate(0) translate(4 214)">
<title>dfa</title>
<!-- 0 -->
<g id="node1" class="node">
<title>0</title>
<ellipse fill="none" stroke="white" cx="93" cy="-192" rx="27" ry="18"/>
<text text-anchor="middle" x="93" y="-188.3" font-family="Times,serif" font-size="14.00" fill="white">0</text>
</g>
<!-- 0&#45;&gt;0 -->
<g id="edge2" class="edge">
<title>0&#45;&gt;0</title>
<path fill="none" stroke="white" d="M117.53,-199.75C128.51,-200.49 138,-197.91 138,-192 138,-188.03 133.72,-185.56 127.57,-184.59"/>
<polygon fill="white" stroke="white" points="127.65,-181.09 117.53,-184.25 127.41,-188.09 127.65,-181.09"/>
<text text-anchor="middle" x="141.5" y="-188.3" font-family="Times,serif" font-size="14.00" fill="white">1</text>
</g>
<!-- 1 -->
<g id="node2" class="node">
<title>1</title>
<ellipse fill="none" stroke="white" cx="27" cy="-105" rx="27" ry="18"/>
<text text-anchor="middle" x="27" y="-101.3" font-family="Times,serif" font-size="14.00" fill="white">1</text>
</g>
<!-- 0&#45;&gt;1 -->
<g id="edge1" class="edge">
<title>0&#45;&gt;1</title>
<path fill="none" stroke="white" d="M81.2,-175.8C71.22,-162.95 56.75,-144.32 45.28,-129.54"/>
<polygon fill="white" stroke="white" points="47.82,-127.1 38.92,-121.35 42.29,-131.4 47.82,-127.1"/>
<text text-anchor="middle" x="67.5" y="-144.8" font-family="Times,serif" font-size="14.00" fill="white">0</text>
</g>
<!-- 1&#45;&gt;1 -->
<g id="edge3" class="edge">
<title>1&#45;&gt;1</title>
<path fill="none" stroke="white" d="M51.53,-112.75C62.51,-113.49 72,-110.91 72,-105 72,-101.03 67.72,-98.56 61.57,-97.59"/>
<polygon fill="white" stroke="white" points="61.65,-94.09 51.53,-97.25 61.41,-101.09 61.65,-94.09"/>
<text text-anchor="middle" x="75.5" y="-101.3" font-family="Times,serif" font-size="14.00" fill="white">0</text>
</g>
<!-- 2 -->
<g id="node3" class="node">
<title>2</title>
<ellipse fill="none" stroke="white" cx="71" cy="-18" rx="27" ry="18"/>
<text text-anchor="middle" x="71" y="-14.3" font-family="Times,serif" font-size="14.00" fill="white">2</text>
</g>
<!-- 1&#45;&gt;2 -->
<g id="edge4" class="edge">
<title>1&#45;&gt;2</title>
<path fill="none" stroke="white" d="M35.48,-87.61C41.81,-75.38 50.58,-58.44 57.82,-44.46"/>
<polygon fill="white" stroke="white" points="61.05,-45.83 62.54,-35.34 54.84,-42.61 61.05,-45.83"/>
<text text-anchor="middle" x="55.5" y="-57.8" font-family="Times,serif" font-size="14.00" fill="white">1</text>
</g>
<!-- 2&#45;&gt;0 -->
<g id="edge5" class="edge">
<title>2&#45;&gt;0</title>
<path fill="none" stroke="white" d="M76.2,-35.86C80.17,-49.51 85.39,-69.3 88,-87 91.82,-112.89 92.92,-142.75 93.15,-163.82"/>
<polygon fill="white" stroke="white" points="89.65,-163.99 93.21,-173.97 96.65,-163.95 89.65,-163.99"/>
<text text-anchor="middle" x="95.5" y="-101.3" font-family="Times,serif" font-size="14.00" fill="white">1</text>
</g>
</g>
</svg>
