<?xml version="1.0" encoding="UTF-8" standalone="no"?>
<!DOCTYPE svg PUBLIC "-//W3C//DTD SVG 1.1//EN"
 "http://www.w3.org/Graphics/SVG/1.1/DTD/svg11.dtd">
<!-- Generated by graphviz version 2.46.0 (0)
 -->
<!-- Title: dfa Pages: 1 -->
<svg width="91pt" height="218pt"
 viewBox="0.00 0.00 91.00 218.00" xmlns="http://www.w3.org/2000/svg" xmlns:xlink="http://www.w3.org/1999/xlink">
<g id="graph0" class="graph" transform="scale(1 1) rotate(0) translate(4 214)">
<title>dfa</title>
<!-- 0 -->
<g id="node1" class="node">
<title>0</title>
<ellipse fill="none" stroke="white" cx="27" cy="-192" rx="27" ry="18"/>
<text text-anchor="middle" x="27" y="-188.3" font-family="Times,serif" font-size="14.00" fill="white">0</text>
</g>
<!-- 0&#45;&gt;0 -->
<g id="edge2" class="edge">
<title>0&#45;&gt;0</title>
<path fill="none" stroke="white" d="M51.53,-199.75C62.51,-200.49 72,-197.91 72,-192 72,-188.03 67.72,-185.56 61.57,-184.59"/>
<polygon fill="white" stroke="white" points="61.65,-181.09 51.53,-184.25 61.41,-188.09 61.65,-181.09"/>
<text text-anchor="middle" x="77.5" y="-188.3" font-family="Times,serif" font-size="14.00" fill="white"> 1</text>
</g>
<!-- 1 -->
<g id="node2" class="node">
<title>1</title>
<ellipse fill="none" stroke="white" cx="27" cy="-105" rx="27" ry="18"/>
<text text-anchor="middle" x="27" y="-101.3" font-family="Times,serif" font-size="14.00" fill="white">1</text>
</g>
<!-- 0&#45;&gt;1 -->
<g id="edge1" class="edge">
<title>0&#45;&gt;1</title>
<path fill="none" stroke="white" d="M27,-173.8C27,-162.16 27,-146.55 27,-133.24"/>
<polygon fill="white" stroke="white" points="30.5,-133.18 27,-123.18 23.5,-133.18 30.5,-133.18"/>
<text text-anchor="middle" x="32.5" y="-144.8" font-family="Times,serif" font-size="14.00" fill="white"> 0</text>
</g>
<!-- 1&#45;&gt;1 -->
<g id="edge3" class="edge">
<title>1&#45;&gt;1</title>
<path fill="none" stroke="white" d="M51.53,-112.75C62.51,-113.49 72,-110.91 72,-105 72,-101.03 67.72,-98.56 61.57,-97.59"/>
<polygon fill="white" stroke="white" points="61.65,-94.09 51.53,-97.25 61.41,-101.09 61.65,-94.09"/>
<text text-anchor="middle" x="77.5" y="-101.3" font-family="Times,serif" font-size="14.00" fill="white"> 0</text>
</g>
<!-- 2 -->
<g id="node3" class="node">
<title>2</title>
<ellipse fill="none" stroke="white" cx="27" cy="-18" rx="27" ry="18"/>
<text text-anchor="middle" x="27" y="-14.3" font-family="Times,serif" font-size="14.00" fill="white">2</text>
</g>
<!-- 1&#45;&gt;2 -->
<g id="edge4" class="edge">
<title>1&#45;&gt;2</title>
<path fill="none" stroke="white" d="M17.83,-87.77C15.06,-82.03 12.39,-75.4 11,-69 9.23,-60.86 10.76,-52.16 13.46,-44.33"/>
<polygon fill="white" stroke="white" points="16.74,-45.58 17.36,-35 10.28,-42.88 16.74,-45.58"/>
<text text-anchor="middle" x="16.5" y="-57.8" font-family="Times,serif" font-size="14.00" fill="white"> 1</text>
</g>
<!-- 2&#45;&gt;1 -->
<g id="edge5" class="edge">
<title>2&#45;&gt;1</title>
<path fill="none" stroke="white" d="M27,-36.18C27,-47.81 27,-63.42 27,-76.73"/>
<polygon fill="white" stroke="white" points="23.5,-76.8 27,-86.8 30.5,-76.8 23.5,-76.8"/>
<text text-anchor="middle" x="32.5" y="-57.8" font-family="Times,serif" font-size="14.00" fill="white"> 0</text>
</g>
</g>
</svg>
